if (_typeface_js && _typeface_js.loadFace) _typeface_js.loadFace({"glyphs":{"S":{"x_min":72.46875,"x_max":632,"ha":697,"o":"m 632 258 q 619 353 632 312 q 577 427 606 394 q 501 490 548 460 q 386 551 454 519 q 299 596 333 576 q 244 635 264 616 q 216 676 223 655 q 209 725 209 698 q 245 816 209 778 q 363 855 282 855 q 471 834 420 855 q 560 784 521 814 l 581 914 q 488 953 540 938 q 367 969 437 969 q 251 950 303 969 q 160 900 199 932 q 102 821 122 867 q 82 716 82 774 q 94 626 82 665 q 137 556 107 587 q 212 496 166 524 q 325 437 259 467 q 413 392 378 412 q 468 351 447 372 q 496 306 488 330 q 505 248 505 281 q 458 140 505 177 q 337 103 411 103 q 203 127 267 103 q 91 184 139 152 l 72 51 q 190 6 124 23 q 335 -11 257 -11 q 455 7 400 -11 q 549 61 510 26 q 610 146 588 97 q 632 258 632 195 "},"/":{"x_min":-50.359375,"x_max":700.96875,"ha":730,"o":"m 700 946 l 592 970 l -50 -152 l 58 -176 l 700 946 "},"K":{"x_min":113,"x_max":816.75,"ha":829,"o":"m 816 20 l 379 513 l 792 958 l 638 958 l 241 527 l 241 958 l 113 958 l 113 0 l 241 0 l 241 485 l 683 -9 l 816 20 "},"7":{"x_min":47.21875,"x_max":657,"ha":719,"o":"m 657 841 l 657 938 l 47 938 l 63 826 l 519 826 l 168 18 l 288 -9 l 657 841 "},"d":{"x_min":59,"x_max":637,"ha":732,"o":"m 637 0 l 637 1001 l 516 982 l 516 640 q 442 661 484 653 q 352 670 400 670 q 239 647 292 670 q 146 581 186 625 q 82 469 106 536 q 59 312 59 402 q 79 167 59 228 q 134 65 99 106 q 215 5 169 24 q 314 -14 261 -14 q 437 18 386 -14 q 525 96 488 51 l 540 0 l 637 0 m 516 212 q 433 127 476 159 q 332 96 389 96 q 224 152 267 96 q 181 317 181 208 q 230 503 181 441 q 356 566 279 566 q 443 556 408 566 q 516 528 477 547 l 516 212 "},",":{"x_min":36.75,"x_max":245,"ha":309,"o":"m 245 165 l 104 165 l 36 -168 l 103 -184 l 245 165 "},"Y":{"x_min":33.890625,"x_max":835.640625,"ha":866,"o":"m 835 958 l 694 958 l 431 499 l 161 967 l 33 939 l 366 380 l 366 0 l 494 0 l 494 380 l 835 958 "},"E":{"x_min":113,"x_max":633,"ha":683,"o":"m 633 0 l 633 119 l 241 119 l 241 442 l 554 442 l 535 561 l 241 561 l 241 839 l 619 839 l 619 958 l 113 958 l 113 0 l 633 0 "},"y":{"x_min":32.671875,"x_max":626.109375,"ha":657,"o":"m 626 662 l 502 662 l 329 144 l 152 671 l 32 652 l 269 -3 l 245 -71 q 141 -149 216 -149 q 106 -146 123 -149 q 73 -139 88 -143 l 89 -247 q 109 -251 99 -250 q 132 -253 119 -253 q 206 -243 172 -253 q 268 -213 239 -234 q 320 -154 296 -191 q 364 -58 344 -116 l 626 662 "},"\"":{"x_min":85.75,"x_max":470.9375,"ha":557,"o":"m 470 938 l 332 938 l 366 665 l 436 649 l 470 938 m 223 938 l 85 938 l 118 665 l 190 649 l 223 938 "},"‹":{"x_min":47.640625,"x_max":378.390625,"ha":440,"o":"m 378 662 l 264 662 l 47 331 l 268 -7 l 370 15 l 179 331 l 378 662 "},"„":{"x_min":61.25,"x_max":488.640625,"ha":557,"o":"m 240 165 l 100 165 l 61 -141 l 129 -158 l 240 165 m 488 165 l 348 165 l 308 -141 l 377 -158 l 488 165 "},"g":{"x_min":23,"x_max":665.765625,"ha":686,"o":"m 249 51 q 285 43 268 47 q 329 34 302 40 l 406 20 q 503 -12 476 8 q 530 -63 530 -33 q 478 -134 530 -105 q 332 -164 427 -164 q 188 -138 237 -164 q 139 -72 139 -112 q 165 -7 139 -37 q 249 51 192 22 m 450 446 q 414 346 450 387 q 315 305 378 305 q 219 343 254 305 q 184 441 184 382 q 219 544 184 502 q 315 586 254 586 q 413 546 376 586 q 450 446 450 506 m 483 620 q 315 676 413 676 q 221 660 266 676 q 141 614 175 644 q 87 541 107 584 q 67 445 67 499 q 100 326 67 377 q 188 248 133 276 q 120 158 120 206 q 160 88 120 117 q 57 10 91 51 q 23 -82 23 -30 q 46 -158 23 -126 q 111 -211 70 -190 q 207 -242 152 -232 q 326 -253 262 -253 q 447 -240 389 -253 q 548 -202 505 -227 q 618 -139 592 -177 q 644 -48 644 -101 q 583 66 644 29 q 420 123 523 104 l 374 131 q 304 145 330 140 q 262 155 277 149 q 242 167 247 161 q 237 181 237 173 q 245 202 237 191 q 269 222 254 212 q 318 218 293 218 q 412 233 367 218 q 492 279 458 249 q 546 350 526 308 q 567 445 567 392 q 541 548 567 503 l 665 560 l 648 671 l 483 620 "},"–":{"x_min":73,"x_max":544,"ha":618,"o":"m 544 336 l 544 453 l 73 453 l 73 336 l 544 336 "},"ƒ":{"x_min":69.03125,"x_max":481,"ha":519,"o":"m 179 629 l 85 629 l 69 525 l 162 525 l 81 0 l 202 0 l 284 525 l 427 525 l 427 629 l 300 629 l 316 732 q 350 814 326 790 q 419 839 373 839 q 452 839 434 839 q 481 836 470 839 l 481 947 q 455 949 470 949 q 419 949 440 949 q 266 903 317 949 q 198 754 214 858 l 179 629 "},"e":{"x_min":59,"x_max":621.140625,"ha":680,"o":"m 621 344 q 604 473 621 412 q 554 578 588 534 q 468 649 520 623 q 344 676 415 676 q 231 652 283 676 q 140 584 178 628 q 80 476 102 539 q 59 333 59 412 q 82 176 59 241 q 146 68 105 110 q 241 6 186 26 q 359 -14 295 -14 q 504 9 441 -14 q 619 74 568 32 l 602 185 q 494 116 549 142 q 368 91 439 91 q 232 146 282 91 q 181 318 181 201 l 621 318 l 621 344 m 498 411 l 185 411 q 243 538 200 497 q 343 579 286 579 q 451 535 414 579 q 498 411 487 491 "},"J":{"x_min":30.078125,"x_max":399,"ha":504,"o":"m 399 235 l 399 958 l 271 958 l 271 247 q 235 137 271 170 q 134 104 200 104 q 77 106 100 104 q 30 116 53 109 l 49 -1 q 88 -7 66 -4 q 133 -10 110 -10 q 326 49 253 -10 q 399 235 399 108 "},"|":{"x_min":127,"x_max":236,"ha":363,"o":"m 236 -240 l 236 1002 l 127 984 l 127 -258 l 236 -240 "},"^":{"x_min":115.6875,"x_max":494.078125,"ha":618,"o":"m 494 768 l 366 955 l 251 955 l 115 759 l 191 759 l 307 857 l 427 754 l 494 768 "},"q":{"x_min":59,"x_max":631,"ha":726,"o":"m 631 -240 l 631 629 q 509 659 566 648 q 377 671 451 671 q 248 648 306 671 q 147 582 189 626 q 82 470 105 537 q 59 312 59 402 q 79 168 59 229 q 134 65 99 106 q 215 5 169 24 q 315 -14 262 -14 q 429 14 381 -14 q 510 76 477 43 l 510 -258 l 631 -240 m 510 204 q 428 126 473 157 q 332 96 384 96 q 224 152 267 96 q 181 318 181 208 q 232 505 181 445 q 379 565 283 565 q 451 558 424 565 q 510 541 478 552 l 510 204 "},"b":{"x_min":95,"x_max":666.5,"ha":725,"o":"m 666 349 q 646 494 666 433 q 590 595 625 555 q 509 655 556 635 q 410 676 463 676 q 296 647 343 676 q 216 584 248 618 l 216 1002 l 95 982 l 95 33 q 216 3 158 14 q 348 -8 274 -8 q 477 14 418 -8 q 578 80 535 36 q 643 192 620 125 q 666 349 666 259 m 544 344 q 492 156 544 215 q 346 98 441 98 q 274 103 301 98 q 216 120 247 109 l 216 458 q 296 535 252 505 q 392 566 341 566 q 501 509 458 566 q 544 344 544 452 "},"D":{"x_min":113,"x_max":879,"ha":957,"o":"m 879 480 q 847 673 879 585 q 754 824 816 760 q 600 922 692 887 q 385 958 507 958 l 113 958 l 113 0 l 379 0 q 593 34 500 0 q 750 133 687 69 q 846 285 813 197 q 879 480 879 373 m 747 479 q 722 319 747 387 q 651 206 698 251 q 536 140 604 162 q 385 118 469 118 l 241 118 l 241 840 l 389 840 q 535 817 469 840 q 648 749 601 794 q 721 636 695 703 q 747 479 747 569 "},"z":{"x_min":48,"x_max":566.328125,"ha":615,"o":"m 566 0 l 550 102 l 185 102 l 550 564 l 550 662 l 64 662 l 80 559 l 411 559 l 48 97 l 48 0 l 566 0 "},"w":{"x_min":38.109375,"x_max":944.609375,"ha":983,"o":"m 944 662 l 826 662 l 687 181 l 543 662 l 441 662 l 296 181 l 153 671 l 38 652 l 247 0 l 341 0 l 490 501 l 639 0 l 735 0 l 944 662 "},"$":{"x_min":57.234375,"x_max":653,"ha":717,"o":"m 477 933 l 492 1026 l 403 1047 l 386 943 l 368 943 q 251 927 304 943 q 159 881 198 912 q 100 804 121 850 q 79 697 79 758 q 92 609 79 647 q 134 542 106 571 q 206 489 163 513 q 311 443 250 465 q 306 408 311 443 q 294 324 301 372 q 279 224 286 275 q 266 140 271 173 q 261 105 261 107 q 163 132 209 114 q 73 175 117 150 l 57 59 q 138 25 91 41 q 241 2 184 10 l 218 -150 l 306 -169 l 332 -6 l 344 -6 q 572 64 492 -6 q 653 256 653 134 q 594 421 653 359 q 412 528 535 483 q 417 560 412 528 q 428 635 422 592 q 442 725 435 679 q 454 799 449 771 q 459 830 459 828 q 533 806 498 821 q 597 774 568 792 l 614 890 q 553 915 587 904 q 477 933 518 926 m 345 96 l 394 414 q 467 379 439 397 q 511 340 495 360 q 533 297 527 320 q 540 249 540 275 q 495 136 540 175 q 353 96 450 96 l 345 96 m 373 842 q 368 812 373 839 q 357 742 364 785 q 345 658 351 699 q 334 587 338 617 q 329 557 329 557 q 218 621 248 588 q 189 708 189 654 q 229 806 189 771 q 352 842 270 842 l 373 842 "},"™":{"x_min":41.796875,"x_max":993,"ha":1087,"o":"m 993 479 l 993 958 l 880 958 l 741 599 l 601 958 l 485 958 l 485 479 l 546 479 l 574 812 l 707 478 l 771 478 l 917 812 l 917 479 l 993 479 m 421 883 l 409 958 l 41 958 l 41 883 l 189 883 l 189 479 l 271 479 l 271 883 l 421 883 "},"\\":{"x_min":28.578125,"x_max":779.921875,"ha":730,"o":"m 779 -154 l 137 968 l 28 945 l 671 -177 l 779 -154 "},"’":{"x_min":70.78125,"x_max":250.4375,"ha":309,"o":"m 250 958 l 110 958 l 70 651 l 138 634 l 250 958 "},"~":{"x_min":68.0625,"x_max":488.640625,"ha":557,"o":"m 488 468 l 409 486 q 390 429 400 444 q 366 414 381 414 q 332 420 349 414 q 276 448 315 427 q 227 472 249 464 q 181 481 206 481 q 68 322 85 481 l 147 305 q 165 362 155 347 q 190 377 175 377 q 222 370 205 377 q 279 342 239 363 q 328 318 306 326 q 375 310 349 310 q 488 468 469 310 "},"-":{"x_min":73,"x_max":408,"ha":482,"o":"m 408 335 l 408 456 l 73 456 l 73 335 l 408 335 "},"Q":{"x_min":75,"x_max":941,"ha":1016,"o":"m 941 479 q 911 681 941 590 q 824 837 881 772 q 688 938 768 902 q 509 975 608 975 q 329 938 409 975 q 192 836 249 902 q 105 679 136 771 q 75 476 75 587 q 386 -6 75 111 l 894 -198 l 920 -83 l 651 13 q 770 76 716 35 q 861 176 823 117 q 919 311 898 235 q 941 479 941 388 m 809 478 q 787 321 809 392 q 727 200 766 250 q 633 121 689 149 q 507 94 577 94 q 382 121 438 94 q 288 200 326 149 q 228 321 249 250 q 207 478 207 392 q 228 634 207 564 q 288 753 249 704 q 382 829 326 803 q 507 856 438 856 q 633 829 577 856 q 727 753 689 803 q 787 634 766 704 q 809 478 809 564 "},"M":{"x_min":125,"x_max":1100,"ha":1225,"o":"m 1100 0 l 1100 958 l 906 958 l 613 172 l 321 958 l 125 958 l 125 0 l 237 0 l 237 762 l 562 -4 l 658 -4 l 984 762 l 984 0 l 1100 0 "},"C":{"x_min":75,"x_max":793.640625,"ha":879,"o":"m 793 75 l 774 198 q 652 130 717 157 q 510 103 586 103 q 383 129 439 103 q 287 204 326 155 q 228 323 249 252 q 207 479 207 393 q 227 635 207 565 q 287 754 247 705 q 382 830 326 804 q 510 857 438 857 q 647 830 586 857 q 759 763 707 804 l 778 897 q 660 955 724 934 q 511 976 596 976 q 332 939 412 976 q 194 837 251 903 q 106 680 137 771 q 75 477 75 588 q 105 275 75 366 q 192 119 136 184 q 329 18 249 54 q 509 -18 409 -18 q 665 8 590 -18 q 793 75 739 34 "},"[":{"x_min":118,"x_max":493.609375,"ha":556,"o":"m 493 -144 l 478 -48 l 235 -48 l 235 864 l 488 864 l 488 958 l 118 958 l 118 -144 l 493 -144 "},"L":{"x_min":113,"x_max":597.609375,"ha":637,"o":"m 597 0 l 579 119 l 241 119 l 241 957 l 113 957 l 113 0 l 597 0 "},"!":{"x_min":117,"x_max":253,"ha":370,"o":"m 241 957 l 129 957 l 129 284 l 241 302 l 241 957 m 253 0 l 253 165 l 117 165 l 117 0 l 253 0 "}," ":{"x_min":0,"x_max":0,"ha":299},"{":{"x_min":54.40625,"x_max":586.453125,"ha":649,"o":"m 586 -144 l 571 -48 l 436 -48 q 369 -25 389 -48 q 350 36 350 -3 q 359 131 350 79 q 369 227 369 183 q 330 352 369 313 q 230 405 292 391 l 230 408 q 286 427 261 415 q 330 461 311 440 q 358 512 348 481 q 369 586 369 542 q 359 683 369 631 q 350 777 350 734 q 371 841 350 818 q 438 864 392 864 l 581 864 l 581 958 l 428 958 q 280 911 327 958 q 234 776 234 865 q 243 681 234 727 q 252 584 252 634 q 214 482 252 510 q 119 454 176 454 l 54 454 l 69 361 l 118 361 q 213 332 175 361 q 252 229 252 304 q 243 132 252 179 q 234 37 234 86 q 280 -96 234 -49 q 428 -144 327 -144 l 586 -144 "},"X":{"x_min":35.390625,"x_max":824.828125,"ha":866,"o":"m 362 498 l 35 0 l 175 0 l 430 398 l 694 -9 l 824 18 l 502 505 l 798 958 l 657 958 l 434 605 l 200 967 l 70 939 l 362 498 "},"P":{"x_min":113,"x_max":680,"ha":729,"o":"m 680 681 q 595 887 680 816 q 361 958 511 958 l 113 958 l 113 0 l 241 0 l 241 389 l 340 389 q 478 407 416 389 q 586 461 541 425 q 655 553 631 498 q 680 681 680 608 m 551 677 q 497 545 551 587 q 347 504 443 504 l 241 504 l 241 843 l 355 843 q 501 802 451 843 q 551 677 551 761 "},"%":{"x_min":60,"x_max":1164,"ha":1225,"o":"m 504 673 q 486 789 504 738 q 439 876 469 840 q 369 930 410 911 q 282 949 328 949 q 194 930 235 949 q 124 876 153 911 q 77 789 94 840 q 60 673 60 738 q 77 557 60 607 q 124 470 94 506 q 194 415 153 434 q 282 397 235 397 q 369 415 328 397 q 439 470 410 434 q 486 557 469 506 q 504 673 504 607 m 951 924 l 857 947 l 273 13 l 366 -9 l 951 924 m 398 673 q 391 599 398 634 q 370 538 384 564 q 334 498 357 513 q 282 484 312 484 q 230 499 251 484 q 193 540 208 514 q 172 600 179 566 q 166 673 166 634 q 193 807 166 752 q 282 862 220 862 q 333 847 312 862 q 370 807 355 832 q 391 746 384 781 q 398 673 398 711 m 1164 265 q 1146 381 1164 330 q 1099 468 1129 432 q 1029 522 1070 503 q 942 541 988 541 q 854 522 895 541 q 784 468 813 503 q 737 381 754 432 q 720 265 720 330 q 737 149 720 199 q 784 62 754 98 q 854 7 813 26 q 942 -11 895 -11 q 1029 7 988 -11 q 1099 62 1070 26 q 1146 149 1129 98 q 1164 265 1164 199 m 1058 265 q 1051 191 1058 226 q 1030 130 1044 156 q 994 90 1017 105 q 942 76 972 76 q 890 91 911 76 q 853 132 868 106 q 832 192 839 157 q 826 265 826 226 q 853 399 826 344 q 942 454 880 454 q 993 439 972 454 q 1030 399 1015 424 q 1051 338 1044 373 q 1058 265 1058 303 "},"#":{"x_min":56,"x_max":843,"ha":900,"o":"m 298 239 l 528 239 l 491 -2 l 587 -2 l 623 239 l 817 239 l 799 345 l 641 345 l 679 595 l 843 595 l 843 700 l 695 700 l 731 927 l 638 948 l 600 700 l 370 700 l 408 941 l 311 941 l 273 700 l 83 700 l 100 595 l 257 595 l 219 345 l 56 345 l 56 239 l 203 239 l 167 11 l 260 -9 l 298 239 m 354 595 l 584 595 l 546 345 l 314 345 l 354 595 "},"_":{"x_min":-3,"x_max":620,"ha":617,"o":"m 620 -144 l 620 -47 l -3 -47 l -3 -144 l 620 -144 "},"+":{"x_min":73,"x_max":705,"ha":779,"o":"m 705 418 l 705 521 l 442 521 l 442 797 l 336 797 l 336 521 l 73 521 l 73 418 l 336 418 l 336 142 l 442 142 l 442 418 l 705 418 "},"":{"x_min":68,"x_max":877,"ha":945,"o":"m 877 -278 l 877 1000 l 739 1000 l 699 1110 l 245 1110 l 204 1000 l 68 1000 l 68 231 q 99 217 87 231 q 111 187 111 204 q 99 155 111 167 q 68 143 87 143 l 68 -278 l 349 -278 l 360 -258 l 582 -258 l 593 -278 l 877 -278 m 544 781 l 623 781 l 623 762 l 565 762 l 565 670 l 616 670 l 616 651 l 565 651 l 565 542 l 544 542 l 544 781 m 250 781 l 271 781 l 271 671 l 335 671 l 335 781 l 355 781 l 355 542 l 335 542 l 335 652 l 271 652 l 271 542 l 250 542 l 250 781 m 626 546 l 626 569 q 639 563 631 566 q 653 560 647 560 q 675 591 675 560 l 675 781 l 697 781 l 697 590 q 654 541 697 541 q 638 542 647 541 q 626 546 630 543 m 712 448 l 722 448 l 722 414 l 751 448 l 765 448 l 740 419 l 766 384 l 754 384 l 732 412 l 722 402 l 722 384 l 712 384 l 712 448 m 664 405 l 647 405 l 647 384 l 637 384 l 637 448 l 665 448 q 681 442 676 448 q 687 428 687 435 q 673 407 687 412 l 689 384 l 678 384 l 664 405 m 579 383 q 556 392 564 383 q 548 416 548 402 q 556 439 548 429 q 579 450 564 450 q 603 439 594 450 q 612 416 612 429 q 603 392 612 402 q 579 383 594 383 m 503 416 l 520 448 l 533 448 l 508 407 l 508 384 l 498 384 l 498 407 l 473 448 l 486 448 l 503 416 m 263 448 l 308 448 l 308 438 l 273 438 l 273 421 l 303 421 l 303 412 l 274 412 l 274 394 l 308 394 l 308 384 l 263 384 l 263 448 m 180 448 l 189 448 l 223 403 l 223 448 l 234 448 l 234 384 l 224 384 l 190 428 l 190 384 l 180 384 l 180 448 m 328 448 l 339 448 l 352 399 l 353 399 l 368 448 l 379 448 l 392 399 l 394 399 l 407 448 l 419 448 l 399 383 l 388 383 l 373 430 l 372 430 l 359 383 l 348 383 l 328 448 m 445 664 q 465 709 465 686 q 460 727 465 720 q 447 735 455 735 q 434 727 439 735 q 429 709 429 720 q 433 688 429 697 q 445 664 438 678 m 465 587 l 438 641 q 418 595 418 620 q 424 568 418 579 q 440 557 430 557 q 454 566 447 557 q 465 587 462 575 m 664 414 q 677 426 677 414 q 663 438 677 438 l 648 438 l 648 414 l 664 414 m 579 393 q 594 399 588 393 q 601 416 601 406 q 594 432 601 424 q 579 440 588 440 q 564 432 569 440 q 559 416 559 424 q 564 399 559 406 q 579 393 569 393 m 475 608 q 481 628 477 617 q 487 649 485 639 l 504 645 q 497 617 502 630 q 487 591 493 603 l 508 549 l 494 538 l 477 572 l 476 572 q 461 548 470 558 q 439 538 453 538 q 408 553 420 538 q 397 592 397 569 q 429 654 397 630 q 415 681 420 670 q 409 708 409 693 q 419 737 409 724 q 447 751 429 751 q 476 737 467 751 q 485 708 485 724 q 475 677 485 692 q 453 651 466 663 l 475 608 "},"‚":{"x_min":61.25,"x_max":240.921875,"ha":309,"o":"m 240 165 l 100 165 l 61 -141 l 129 -158 l 240 165 "},")":{"x_min":58.34375,"x_max":464,"ha":552,"o":"m 464 435 q 445 598 464 523 q 391 742 427 674 q 300 874 355 810 q 175 1002 246 938 l 58 975 q 186 840 133 906 q 272 710 239 774 q 321 578 306 645 q 336 440 336 512 q 278 179 336 290 q 100 -20 221 69 l 120 -137 q 376 111 288 -29 q 464 435 464 251 "},"'":{"x_min":85.75,"x_max":223.21875,"ha":309,"o":"m 223 938 l 85 938 l 118 665 l 190 649 l 223 938 "},"}":{"x_min":61.1875,"x_max":594.59375,"ha":649,"o":"m 594 361 l 579 454 l 530 454 q 434 482 472 454 q 396 584 396 510 q 405 681 396 634 q 415 776 415 729 q 368 911 415 865 q 220 958 321 958 l 61 958 l 76 864 l 209 864 q 277 842 256 864 q 299 780 299 820 q 289 684 299 737 q 280 586 280 631 q 290 512 280 542 q 318 461 300 481 q 362 427 337 440 q 419 408 387 415 l 419 405 q 318 352 356 391 q 280 227 280 313 q 289 130 280 183 q 299 35 299 76 q 277 -26 299 -5 q 209 -48 256 -48 l 68 -48 l 68 -144 l 220 -144 q 368 -96 321 -144 q 415 37 415 -49 q 405 132 415 86 q 396 229 396 179 q 433 332 396 304 q 529 361 470 361 l 594 361 "},"‰":{"x_min":73,"x_max":1014,"ha":1088,"o":"m 1014 480 q 979 682 1014 591 q 883 838 945 773 q 735 939 821 903 q 544 976 649 976 q 352 939 439 976 q 204 837 266 903 q 107 680 142 771 q 73 477 73 588 q 107 275 73 366 q 203 119 141 184 q 351 18 265 54 q 542 -18 437 -18 q 733 18 646 -18 q 882 120 820 54 q 979 277 944 186 q 1014 480 1014 369 m 954 479 q 922 287 954 370 q 836 147 891 204 q 706 61 781 90 q 544 32 631 32 q 382 61 457 32 q 252 147 307 90 q 164 287 196 204 q 133 479 133 370 q 164 670 133 587 q 250 810 195 753 q 380 896 305 867 q 544 926 455 926 q 704 896 629 926 q 834 810 779 867 q 922 670 890 753 q 954 479 954 587 m 621 441 q 698 497 669 459 q 727 594 727 535 q 674 717 727 673 q 534 762 622 762 l 378 762 l 378 215 l 469 215 l 469 425 l 524 425 l 680 208 l 777 230 l 621 441 m 531 680 q 608 655 582 680 q 634 591 634 631 q 606 526 634 548 q 529 504 578 504 l 469 504 l 469 680 l 531 680 "},"a":{"x_min":56,"x_max":587,"ha":680,"o":"m 587 0 l 587 463 q 529 625 587 574 q 352 676 472 676 q 218 659 276 676 q 101 620 159 643 l 117 513 q 226 553 170 536 q 342 570 282 570 q 432 545 399 570 q 466 457 466 520 l 466 429 q 287 400 363 418 q 159 350 211 381 q 81 276 107 320 q 56 170 56 232 q 107 35 56 85 q 246 -14 158 -14 q 381 17 327 -14 q 475 88 436 48 l 489 0 l 587 0 m 466 181 q 375 113 425 138 q 272 88 325 88 q 201 112 226 88 q 176 177 176 137 q 187 227 176 202 q 231 273 199 252 q 319 310 263 293 q 466 335 376 327 l 466 181 "},"T":{"x_min":45,"x_max":779.609375,"ha":816,"o":"m 779 838 l 760 957 l 45 957 l 45 838 l 344 838 l 344 0 l 472 0 l 472 838 l 779 838 "},"—":{"x_min":73,"x_max":1162,"ha":1236,"o":"m 1162 337 l 1162 451 l 73 451 l 73 337 l 1162 337 "},"=":{"x_min":99,"x_max":705,"ha":803,"o":"m 705 569 l 705 680 l 99 680 l 99 569 l 705 569 m 705 258 l 705 369 l 99 369 l 99 258 l 705 258 "},"N":{"x_min":113,"x_max":844,"ha":957,"o":"m 844 0 l 844 958 l 726 958 l 726 240 l 226 958 l 113 958 l 113 0 l 231 0 l 231 745 l 747 0 l 844 0 "},"2":{"x_min":60,"x_max":660.609375,"ha":727,"o":"m 660 0 l 644 111 l 220 111 l 483 383 q 556 464 525 427 q 607 538 586 502 q 637 611 627 574 q 647 691 647 648 q 570 884 647 813 q 359 956 494 956 q 205 925 273 956 q 84 850 136 895 l 102 729 q 218 809 156 778 q 352 841 280 841 q 477 801 434 841 q 520 682 520 761 q 491 575 520 625 q 400 457 462 524 l 60 95 l 60 0 l 660 0 "},"j":{"x_min":-20.890625,"x_max":242,"ha":330,"o":"m 242 872 q 219 928 242 904 q 165 952 197 952 q 111 928 134 952 q 88 872 88 904 q 111 817 88 840 q 165 795 134 795 q 219 817 197 795 q 242 872 242 840 m 225 -83 l 225 661 l 104 661 l 104 -72 q 85 -127 104 -110 q 36 -145 67 -145 q 5 -143 21 -145 q -20 -139 -10 -142 l -3 -248 q 20 -253 3 -253 q 52 -253 37 -253 q 177 -213 129 -253 q 225 -83 225 -173 "},"Z":{"x_min":65,"x_max":766.25,"ha":823,"o":"m 766 0 l 748 114 l 218 114 l 754 860 l 754 958 l 88 958 l 105 844 l 600 844 l 65 97 l 65 0 l 766 0 "},"u":{"x_min":93,"x_max":622,"ha":717,"o":"m 622 0 l 622 662 l 501 662 l 501 203 q 409 126 457 155 q 313 97 360 97 q 237 128 260 97 q 214 210 214 159 l 214 662 l 93 662 l 93 180 q 139 38 93 90 q 280 -14 186 -14 q 407 18 350 -14 q 510 95 464 51 l 525 0 l 622 0 "},"1":{"x_min":29.46875,"x_max":356,"ha":485,"o":"m 356 0 l 356 941 l 249 941 l 29 836 l 43 736 l 235 810 l 235 0 l 356 0 "},"›":{"x_min":61.25,"x_max":392,"ha":440,"o":"m 392 330 l 171 669 l 69 646 l 261 330 l 61 0 l 175 0 l 392 330 "},"k":{"x_min":95,"x_max":636.578125,"ha":654,"o":"m 636 11 l 339 369 l 613 662 l 467 662 l 216 384 l 216 1002 l 95 982 l 95 0 l 216 0 l 216 346 l 504 -9 l 636 11 "},"<":{"x_min":78,"x_max":686,"ha":779,"o":"m 686 113 l 686 234 l 203 470 l 686 705 l 686 824 l 78 516 l 78 421 l 686 113 "},"t":{"x_min":29,"x_max":406.96875,"ha":459,"o":"m 406 -2 l 390 103 q 334 99 367 99 q 264 122 283 99 q 245 186 245 146 l 245 558 l 401 558 l 385 662 l 245 662 l 245 900 l 127 882 l 127 662 l 29 662 l 29 558 l 127 558 l 127 164 q 178 26 127 64 q 315 -11 230 -11 q 369 -8 347 -11 q 406 -2 392 -5 "},"W":{"x_min":53.078125,"x_max":1336.609375,"ha":1384,"o":"m 1336 958 l 1205 958 l 997 205 l 758 958 l 630 958 l 390 205 l 178 967 l 53 939 l 330 0 l 436 0 l 691 776 l 945 0 l 1053 0 l 1336 958 "},"v":{"x_min":34.03125,"x_max":611.140625,"ha":644,"o":"m 611 662 l 487 662 l 323 148 l 155 671 l 34 652 l 264 -3 l 379 -3 l 611 662 "},">":{"x_min":93,"x_max":701,"ha":779,"o":"m 701 421 l 701 516 l 93 824 l 93 703 l 575 467 l 93 233 l 93 113 l 701 421 "},"s":{"x_min":56.125,"x_max":549,"ha":602,"o":"m 549 184 q 535 265 549 231 q 493 324 521 299 q 420 366 464 348 q 316 399 376 384 q 210 440 239 419 q 181 495 181 462 q 208 551 181 531 q 292 572 236 572 q 396 556 344 572 q 490 515 447 540 l 509 631 q 410 664 463 652 q 295 676 357 676 q 128 623 189 676 q 67 492 67 571 q 79 416 67 448 q 116 360 91 384 q 182 319 141 337 q 280 288 223 302 q 354 267 324 277 q 402 244 384 256 q 427 215 419 231 q 435 176 435 198 q 400 111 435 134 q 302 88 365 88 q 177 110 235 88 q 73 165 119 133 l 56 48 q 163 5 98 24 q 293 -14 227 -14 q 484 39 419 -14 q 549 184 549 92 "},"B":{"x_min":113,"x_max":685,"ha":742,"o":"m 685 280 q 636 431 685 375 q 509 510 588 486 q 608 586 573 538 q 644 709 644 635 q 625 810 644 764 q 569 889 607 856 q 475 939 532 921 q 340 958 417 958 l 113 958 l 113 0 l 337 0 q 593 67 501 0 q 685 280 685 135 m 519 705 q 470 594 519 634 q 328 555 422 555 l 238 555 l 238 847 l 337 847 q 476 809 434 847 q 519 705 519 771 m 560 277 q 504 152 560 194 q 347 111 449 111 l 238 111 l 238 448 l 343 448 q 504 404 449 448 q 560 277 560 360 "},"…":{"x_min":99,"x_max":890,"ha":988,"o":"m 890 0 l 890 165 l 754 165 l 754 0 l 890 0 m 562 0 l 562 165 l 426 165 l 426 0 l 562 0 m 235 0 l 235 165 l 99 165 l 99 0 l 235 0 "},"?":{"x_min":59.453125,"x_max":630,"ha":705,"o":"m 630 730 q 609 832 630 787 q 552 909 589 877 q 464 958 515 941 q 350 976 413 976 q 194 948 266 976 q 59 873 122 920 l 77 745 q 199 826 134 794 q 344 858 263 858 q 457 823 413 858 q 502 724 502 788 q 457 617 502 658 q 316 537 413 577 l 269 513 l 269 284 l 357 302 l 369 439 q 478 495 431 467 q 560 556 526 523 q 612 631 594 589 q 630 730 630 673 m 386 0 l 386 165 l 250 165 l 250 0 l 386 0 "},"H":{"x_min":113,"x_max":844,"ha":957,"o":"m 844 0 l 844 958 l 716 958 l 716 561 l 241 561 l 241 958 l 113 958 l 113 0 l 241 0 l 241 442 l 716 442 l 716 0 l 844 0 "},"c":{"x_min":59,"x_max":583.03125,"ha":639,"o":"m 583 56 l 565 167 q 470 108 514 123 q 376 94 425 94 q 235 152 290 94 q 181 331 181 210 q 231 508 181 448 q 362 568 282 568 q 466 549 419 568 q 558 494 513 531 l 576 615 q 487 659 539 642 q 363 676 436 676 q 244 653 299 676 q 148 587 189 631 q 82 479 106 544 q 59 330 59 414 q 81 183 59 247 q 144 75 103 119 q 240 8 185 31 q 361 -14 295 -14 q 479 1 426 -14 q 583 56 532 17 "},"&":{"x_min":48,"x_max":930.640625,"ha":928,"o":"m 930 23 l 727 230 q 786 369 763 294 q 824 531 809 445 l 712 556 q 647 312 692 409 l 388 576 q 317 664 339 626 q 295 746 295 702 q 326 830 295 798 q 422 862 357 862 q 527 841 474 862 q 635 785 580 821 l 655 916 q 550 960 608 944 q 424 976 492 976 q 315 957 362 976 q 234 906 267 938 q 185 832 202 874 q 168 744 168 791 q 192 628 168 676 q 262 531 217 580 q 107 413 166 484 q 48 240 48 342 q 129 48 48 115 q 357 -18 210 -18 q 527 20 451 -18 q 661 129 603 58 l 798 -8 l 930 23 m 584 206 q 358 93 490 93 q 226 138 276 93 q 176 254 176 183 q 217 368 176 316 q 335 456 259 420 l 584 206 "},"I":{"x_min":121,"x_max":249,"ha":370,"o":"m 249 0 l 249 958 l 121 958 l 121 0 l 249 0 "},"•":{"x_min":106.171875,"x_max":466.859375,"ha":573,"o":"m 466 478 l 441 651 l 287 674 l 133 651 l 106 478 l 133 308 l 287 283 l 441 308 l 466 478 "},"G":{"x_min":75,"x_max":850,"ha":949,"o":"m 850 75 l 850 523 l 488 523 l 506 404 l 723 404 l 723 150 q 637 114 682 126 q 532 103 593 103 q 390 129 452 103 q 288 204 329 155 q 227 323 247 252 q 207 479 207 393 q 226 635 207 565 q 285 754 246 705 q 384 830 325 804 q 520 857 442 857 q 669 829 603 857 q 787 760 735 802 l 807 894 q 683 953 751 931 q 521 976 615 976 q 333 939 416 976 q 193 837 250 903 q 105 680 136 771 q 75 477 75 588 q 104 275 75 366 q 191 119 133 184 q 335 18 249 54 q 532 -18 420 -18 q 707 8 626 -18 q 850 75 788 34 "},"(":{"x_min":87,"x_max":493.65625,"ha":552,"o":"m 493 -104 q 365 30 418 -34 q 279 161 312 95 q 230 292 245 226 q 216 431 216 359 q 272 691 216 580 q 450 891 328 802 l 431 1007 q 175 759 263 899 q 87 434 87 619 q 105 271 87 347 q 160 127 123 195 q 250 -3 197 59 q 376 -130 304 -66 l 493 -104 "},"`":{"x_min":167.421875,"x_max":431.46875,"ha":618,"o":"m 431 759 l 314 968 l 167 935 l 349 759 l 431 759 "},"U":{"x_min":103,"x_max":834,"ha":937,"o":"m 834 369 l 834 958 l 706 958 l 706 374 q 646 172 706 244 q 466 101 586 101 q 288 177 345 101 q 231 378 231 253 l 231 958 l 103 958 l 103 362 q 127 204 103 274 q 198 84 152 134 q 313 8 245 34 q 466 -18 380 -18 q 620 8 552 -18 q 735 84 688 34 q 808 206 783 134 q 834 369 834 279 "},"◊":{"x_min":92.921875,"x_max":994,"ha":1088,"o":"m 994 479 l 994 958 l 881 958 l 742 599 l 602 958 l 486 958 l 486 479 l 547 479 l 575 812 l 708 478 l 772 478 l 918 812 l 918 479 l 994 479 m 227 472 q 338 508 297 472 q 380 608 380 545 q 373 659 380 637 q 350 699 366 681 q 310 730 335 716 q 250 762 286 745 q 190 798 207 781 q 173 842 173 814 q 191 879 173 864 q 243 894 209 894 q 297 883 271 894 q 347 856 323 873 l 361 935 q 246 965 313 965 q 137 929 178 965 q 97 835 97 894 q 103 785 97 806 q 126 748 110 765 q 166 717 141 731 q 226 687 190 703 q 286 650 268 667 q 304 602 304 633 q 282 558 304 574 q 229 543 261 543 q 164 555 196 543 q 102 587 132 567 l 92 506 q 227 472 150 472 "},"F":{"x_min":113,"x_max":601.6875,"ha":651,"o":"m 601 838 l 601 957 l 113 957 l 113 0 l 241 0 l 241 426 l 543 426 l 524 545 l 241 545 l 241 838 l 601 838 "},"r":{"x_min":95,"x_max":458.265625,"ha":487,"o":"m 458 556 l 439 673 q 303 628 358 673 q 211 526 247 583 l 191 662 l 95 662 l 95 0 l 216 0 l 216 391 q 256 453 232 424 q 312 505 281 483 q 380 542 343 528 q 458 556 417 556 "},":":{"x_min":93,"x_max":229,"ha":322,"o":"m 229 497 l 229 662 l 93 662 l 93 497 l 229 497 m 229 0 l 229 165 l 93 165 l 93 0 l 229 0 "},"x":{"x_min":39.46875,"x_max":602.96875,"ha":642,"o":"m 602 8 l 383 342 l 589 662 l 462 662 l 321 435 l 172 671 l 53 652 l 258 338 l 39 0 l 167 0 l 319 247 l 483 -9 l 602 8 "},"*":{"x_min":55.8125,"x_max":488.640625,"ha":544,"o":"m 488 790 l 475 830 l 313 801 l 294 965 l 249 965 l 230 801 l 69 830 l 55 790 l 202 717 l 125 569 l 159 545 l 272 666 l 383 545 l 419 569 l 340 717 l 488 790 "},"†":{"x_min":61,"x_max":618,"ha":679,"o":"m 393 848 l 393 958 l 287 958 l 287 848 l 315 661 l 363 661 l 393 848 m 618 554 l 618 660 l 578 660 l 395 629 l 395 583 l 578 554 l 618 554 m 286 583 l 286 629 l 100 660 l 61 660 l 61 554 l 100 554 l 286 583 m 389 23 l 389 387 l 363 553 l 315 553 l 290 387 l 290 23 l 318 -158 l 360 -158 l 389 23 "},"V":{"x_min":39.46875,"x_max":882,"ha":921,"o":"m 882 958 l 747 958 l 460 170 l 167 967 l 39 939 l 401 -4 l 515 -4 l 882 958 "},"h":{"x_min":95,"x_max":624,"ha":717,"o":"m 624 0 l 624 481 q 576 623 624 571 q 436 676 528 676 q 369 666 400 676 q 311 643 338 657 q 260 610 284 628 q 216 574 236 592 l 216 1002 l 95 982 l 95 0 l 216 0 l 216 458 q 307 535 259 506 q 403 565 356 565 q 479 533 456 565 q 503 451 503 502 l 503 0 l 624 0 "},"0":{"x_min":69,"x_max":773,"ha":842,"o":"m 773 469 q 747 677 773 586 q 676 829 722 768 q 565 924 630 891 q 421 957 500 957 q 277 924 342 957 q 165 829 211 891 q 94 677 119 768 q 69 469 69 586 q 94 261 69 352 q 165 109 119 170 q 277 14 211 47 q 421 -18 342 -18 q 565 14 500 -18 q 676 109 630 47 q 747 261 722 170 q 773 469 773 352 m 648 469 q 588 188 648 284 q 421 92 528 92 q 254 188 315 92 q 194 469 194 284 q 254 750 194 654 q 421 847 315 847 q 588 750 528 847 q 648 469 648 654 "},".":{"x_min":87,"x_max":222,"ha":309,"o":"m 222 0 l 222 165 l 87 165 l 87 0 l 222 0 "},"”":{"x_min":70.78125,"x_max":498.171875,"ha":557,"o":"m 250 958 l 110 958 l 70 651 l 138 634 l 250 958 m 498 958 l 357 958 l 318 651 l 386 634 l 498 958 "},"@":{"x_min":69,"x_max":1066,"ha":1138,"o":"m 647 269 q 567 184 601 210 q 497 158 533 158 q 448 181 465 158 q 431 258 431 205 q 445 368 431 319 q 486 452 460 417 q 542 506 511 487 q 606 525 573 525 q 648 521 632 525 q 685 511 663 518 l 647 269 m 654 181 q 714 96 669 124 q 821 68 760 68 q 922 93 877 68 q 999 164 967 118 q 1048 276 1031 211 q 1066 422 1066 341 q 1034 607 1066 525 q 945 748 1003 690 q 806 839 887 807 q 626 871 725 871 q 406 822 507 871 q 229 689 304 773 q 111 494 154 605 q 69 255 69 382 q 100 64 69 147 q 190 -76 132 -19 q 331 -164 248 -134 q 515 -194 413 -194 q 688 -174 612 -194 q 824 -127 764 -154 l 816 -77 q 681 -127 753 -109 q 520 -145 609 -145 q 365 -121 436 -145 q 241 -48 293 -97 q 158 77 188 0 q 129 257 129 153 q 168 483 129 379 q 274 661 207 586 q 430 778 341 736 q 620 821 519 821 q 772 795 702 821 q 895 720 843 770 q 977 595 947 670 q 1007 420 1007 520 q 958 206 1007 280 q 838 133 910 133 q 773 156 796 133 q 750 221 750 180 q 750 259 750 238 q 754 294 750 280 l 797 576 q 709 601 753 591 q 617 611 665 611 q 509 584 561 611 q 415 510 456 558 q 350 395 375 462 q 326 244 326 327 q 338 165 326 198 q 370 110 350 131 q 415 78 390 88 q 468 68 441 68 q 560 95 518 68 q 654 181 602 122 "},"f":{"x_min":34,"x_max":402.453125,"ha":423,"o":"m 402 874 l 384 987 q 363 988 375 987 q 333 990 352 990 q 252 980 289 990 q 189 948 216 970 q 146 891 161 925 q 132 807 132 857 l 132 662 l 34 662 l 34 558 l 132 558 l 132 0 l 250 0 l 250 558 l 395 558 l 380 662 l 250 662 l 250 795 q 273 860 250 841 q 339 880 297 880 q 375 878 358 880 q 402 874 391 877 "},";":{"x_min":33.953125,"x_max":242.09375,"ha":321,"o":"m 238 497 l 238 662 l 102 662 l 102 497 l 238 497 m 242 165 l 102 165 l 33 -168 l 100 -184 l 242 165 "},"“":{"x_min":58.53125,"x_max":485.921875,"ha":557,"o":"m 238 951 l 170 968 l 58 645 l 198 645 l 238 951 m 485 951 l 417 968 l 306 645 l 446 645 l 485 951 "},"i":{"x_min":88,"x_max":242,"ha":330,"o":"m 242 872 q 219 928 242 904 q 165 952 197 952 q 111 928 134 952 q 88 872 88 904 q 111 817 88 840 q 165 795 134 795 q 219 817 197 795 q 242 872 242 840 m 225 0 l 225 662 l 104 662 l 104 0 l 225 0 "},"6":{"x_min":68,"x_max":716,"ha":768,"o":"m 196 501 q 248 632 211 576 q 334 730 284 688 q 448 799 384 772 q 582 845 511 827 l 566 956 q 364 881 455 928 q 207 762 273 833 q 104 596 141 691 q 68 379 68 501 q 92 207 68 281 q 161 83 117 133 q 266 7 205 33 q 398 -18 326 -18 q 525 4 466 -18 q 626 68 583 27 q 692 164 668 108 q 716 287 716 220 q 639 497 716 420 q 429 575 563 575 q 303 554 360 575 q 196 501 245 534 m 186 383 q 402 465 282 465 q 547 416 502 465 q 593 281 593 367 q 540 141 593 191 q 402 92 486 92 q 244 171 302 92 q 186 383 186 250 "},"A":{"x_min":39.46875,"x_max":896.96875,"ha":936,"o":"m 896 18 l 534 961 l 406 961 l 39 0 l 168 0 l 274 287 l 662 287 l 773 -9 l 896 18 m 619 402 l 318 402 l 468 805 l 619 402 "},"‘":{"x_min":58.53125,"x_max":238.1875,"ha":309,"o":"m 238 951 l 170 968 l 58 645 l 198 645 l 238 951 "},"n":{"x_min":95,"x_max":624,"ha":717,"o":"m 624 0 l 624 481 q 576 623 624 571 q 436 676 528 676 q 309 642 366 676 q 206 566 252 609 l 191 662 l 95 662 l 95 0 l 216 0 l 216 458 q 307 535 259 506 q 403 565 356 565 q 479 533 456 565 q 503 451 503 502 l 503 0 l 624 0 "},"O":{"x_min":75,"x_max":941,"ha":1016,"o":"m 941 480 q 911 682 941 591 q 824 838 881 773 q 688 939 768 903 q 509 976 608 976 q 329 939 409 976 q 192 837 249 903 q 105 680 136 771 q 75 477 75 588 q 104 275 75 366 q 191 119 134 184 q 327 18 247 54 q 506 -18 407 -18 q 686 18 606 -18 q 823 120 766 54 q 910 277 879 186 q 941 480 941 369 m 809 479 q 787 322 809 392 q 727 203 766 252 q 633 127 689 153 q 507 101 577 101 q 382 127 438 101 q 288 203 326 153 q 228 322 249 252 q 207 479 207 392 q 228 635 207 565 q 288 754 249 705 q 382 830 326 804 q 507 857 438 857 q 633 830 577 857 q 727 754 689 804 q 787 635 766 705 q 809 479 809 565 "},"3":{"x_min":44.84375,"x_max":637,"ha":700,"o":"m 637 256 q 588 412 637 355 q 450 493 540 468 q 572 570 525 518 q 619 710 619 622 q 602 801 619 757 q 550 880 586 846 q 459 935 514 914 q 326 956 404 956 q 176 933 240 956 q 59 870 112 910 l 77 753 q 189 819 129 795 q 321 844 249 844 q 451 805 408 844 q 494 705 494 766 q 439 588 494 628 q 269 548 385 548 l 200 548 l 217 437 l 259 437 q 452 389 393 437 q 512 255 512 341 q 459 134 512 175 q 315 94 407 94 q 183 115 242 94 q 65 177 123 137 l 44 55 q 166 2 97 22 q 308 -18 235 -18 q 445 1 383 -18 q 548 56 506 20 q 613 143 590 92 q 637 256 637 194 "},"]":{"x_min":61.03125,"x_max":437,"ha":557,"o":"m 437 -144 l 437 958 l 61 958 l 76 864 l 321 864 l 321 -48 l 67 -48 l 67 -144 l 437 -144 "},"m":{"x_min":95,"x_max":1016,"ha":1109,"o":"m 1016 0 l 1016 481 q 971 623 1016 571 q 832 676 926 676 q 705 642 762 676 q 603 566 647 609 q 544 646 584 617 q 432 676 504 676 q 307 642 362 676 q 206 566 252 609 l 191 662 l 95 662 l 95 0 l 216 0 l 216 458 q 305 535 259 506 q 399 565 352 565 q 473 533 452 565 q 495 451 495 502 l 495 0 l 616 0 l 616 458 q 705 535 659 506 q 799 565 752 565 q 873 533 852 565 q 895 451 895 502 l 895 0 l 1016 0 "},"9":{"x_min":52,"x_max":700,"ha":768,"o":"m 567 422 q 511 294 549 349 q 422 200 474 240 q 306 134 370 160 q 171 92 242 108 l 189 -18 q 395 53 301 6 q 557 173 489 101 q 662 341 625 245 q 700 559 700 438 q 675 730 700 656 q 606 854 650 804 q 501 930 562 904 q 367 956 439 956 q 241 933 299 956 q 141 868 184 910 q 75 770 99 826 q 52 645 52 713 q 127 429 52 507 q 338 351 203 351 q 461 370 403 351 q 567 422 519 389 m 582 542 q 480 481 534 502 q 363 461 426 461 q 220 510 265 461 q 174 650 174 560 q 226 795 174 744 q 365 846 279 846 q 454 825 414 846 q 522 766 494 804 q 566 673 550 728 q 582 552 582 618 l 582 542 "},"l":{"x_min":105,"x_max":226,"ha":331,"o":"m 226 0 l 226 1002 l 105 982 l 105 0 l 226 0 "},"8":{"x_min":61,"x_max":711.5,"ha":773,"o":"m 420 536 q 325 579 364 559 q 262 617 286 598 q 226 660 237 637 q 216 716 216 684 q 258 812 216 773 q 387 851 301 851 q 514 815 470 851 q 559 719 559 780 q 520 617 559 665 q 420 536 482 570 m 354 448 q 465 399 420 420 q 537 355 510 377 q 576 305 564 332 q 589 241 589 279 q 533 129 589 171 q 387 88 477 88 q 240 128 297 88 q 183 246 183 169 q 230 361 183 309 q 354 448 277 412 m 252 494 q 114 386 168 450 q 61 240 61 323 q 82 141 61 187 q 144 59 103 94 q 245 2 184 23 q 384 -18 305 -18 q 520 1 459 -18 q 623 55 580 20 q 689 136 666 90 q 711 237 711 183 q 698 325 711 287 q 660 393 685 363 q 599 447 635 423 q 518 493 563 470 q 631 587 584 531 q 679 722 679 643 q 659 815 679 772 q 602 889 639 858 q 510 938 564 920 q 390 957 456 957 q 269 938 323 957 q 177 888 215 920 q 117 811 138 855 q 96 715 96 766 q 107 638 96 672 q 139 579 119 605 q 188 533 160 554 q 252 494 217 512 "},"p":{"x_min":95,"x_max":673.5,"ha":732,"o":"m 673 349 q 653 494 673 433 q 597 595 632 555 q 516 655 563 635 q 417 676 470 676 q 294 643 345 676 q 206 566 243 610 l 191 662 l 95 662 l 95 -257 l 216 -239 l 216 21 q 289 0 247 8 q 379 -8 331 -8 q 491 14 437 -8 q 585 80 545 36 q 649 192 625 125 q 673 349 673 259 m 551 344 q 501 158 551 220 q 373 96 451 96 q 287 104 322 96 q 216 132 252 112 l 216 449 q 299 534 255 502 q 398 566 342 566 q 508 509 465 566 q 551 344 551 452 "},"4":{"x_min":48,"x_max":768,"ha":802,"o":"m 768 212 l 768 314 l 621 314 l 621 940 l 475 940 l 48 303 l 48 212 l 508 212 l 508 0 l 621 0 l 621 212 l 768 212 m 508 314 l 178 314 l 508 800 l 508 314 "},"‡":{"x_min":73,"x_max":630,"ha":705,"o":"m 405 847 l 405 957 l 299 957 l 299 847 l 329 660 l 375 660 l 405 847 m 630 553 l 630 659 l 590 659 l 407 628 l 407 582 l 590 553 l 630 553 m 298 582 l 298 628 l 113 659 l 73 659 l 73 553 l 113 553 l 298 582 m 401 319 l 401 386 l 375 552 l 329 552 l 302 386 l 302 319 l 329 154 l 375 154 l 401 319 m 630 47 l 630 153 l 590 153 l 407 122 l 407 76 l 590 47 l 630 47 m 298 76 l 298 122 l 113 153 l 73 153 l 73 47 l 113 47 l 298 76 m 405 -253 l 405 -143 l 375 45 l 329 45 l 299 -143 l 299 -253 l 405 -253 "},"R":{"x_min":113,"x_max":754.5,"ha":776,"o":"m 553 679 q 498 555 553 597 q 350 514 444 514 l 241 514 l 241 843 l 363 843 q 505 800 457 843 q 553 679 553 758 m 475 420 q 624 512 567 447 q 681 685 681 577 q 597 887 681 817 q 369 958 513 958 l 113 958 l 113 0 l 241 0 l 241 404 l 337 404 l 625 -9 l 754 19 l 475 420 "},"o":{"x_min":59,"x_max":659,"ha":718,"o":"m 659 330 q 636 476 659 412 q 573 584 614 539 q 477 652 532 628 q 356 676 422 676 q 237 652 291 676 q 143 584 182 628 q 81 476 103 539 q 59 330 59 412 q 81 184 59 248 q 143 76 103 120 q 237 8 182 31 q 356 -14 291 -14 q 477 8 422 -14 q 573 76 532 31 q 636 184 614 120 q 659 330 659 248 m 536 330 q 524 233 536 277 q 490 157 513 190 q 435 106 468 124 q 356 88 401 88 q 280 107 313 88 q 226 158 248 126 q 193 235 204 191 q 181 330 181 278 q 192 426 181 381 q 225 503 203 470 q 280 553 246 535 q 356 572 313 572 q 434 553 400 572 q 490 501 468 534 q 524 425 513 469 q 536 330 536 381 "},"5":{"x_min":58.5625,"x_max":661.5,"ha":717,"o":"m 661 294 q 640 410 661 358 q 579 500 619 462 q 484 557 540 537 q 358 578 429 578 q 274 570 309 578 q 221 554 238 562 l 221 827 l 630 827 l 613 938 l 113 938 l 113 458 l 188 437 q 256 459 219 451 q 344 468 293 468 q 489 419 439 468 q 539 287 539 370 q 521 199 539 236 q 475 138 504 162 q 404 103 445 114 q 318 92 364 92 q 187 114 249 92 q 77 172 126 136 l 58 54 q 170 2 107 22 q 314 -18 232 -18 q 451 2 387 -18 q 561 61 514 22 q 634 159 608 101 q 661 294 661 218 "}}}
